<mxfile host="app.diagrams.net" agent="Mozilla/5.0 (X11; Linux x86_64; rv:137.0) Gecko/20100101 Firefox/137.0" version="26.2.12">
  <diagram id="Ht1M8jgEwFfnCIfOTk4-" name="Page-1">
    <mxGraphModel dx="1241" dy="888" grid="1" gridSize="10" guides="1" tooltips="1" connect="1" arrows="1" fold="1" page="1" pageScale="1" pageWidth="1169" pageHeight="827" math="0" shadow="0">
      <root>
        <mxCell id="0" />
        <mxCell id="1" parent="0" />
        <mxCell id="UEzPUAAOIrF-is8g5C7q-74" value="&lt;b&gt;AWS Cloud&lt;/b&gt;" style="points=[[0,0],[0.25,0],[0.5,0],[0.75,0],[1,0],[1,0.25],[1,0.5],[1,0.75],[1,1],[0.75,1],[0.5,1],[0.25,1],[0,1],[0,0.75],[0,0.5],[0,0.25]];outlineConnect=0;gradientColor=none;html=1;whiteSpace=wrap;fontSize=12;fontStyle=0;shape=mxgraph.aws4.group;grIcon=mxgraph.aws4.group_aws_cloud_alt;strokeColor=#232F3E;fillColor=none;verticalAlign=top;align=left;spacingLeft=30;fontColor=#232F3E;dashed=0;labelBackgroundColor=#ffffff;container=1;pointerEvents=0;collapsible=0;recursiveResize=0;" parent="1" vertex="1">
          <mxGeometry x="30" y="50" width="1120" height="680" as="geometry" />
        </mxCell>
        <mxCell id="QF0fgMjlyhS2rDeq32wS-2" value="&lt;font style=&quot;font-size: 13px;&quot;&gt;&lt;b&gt;eu-west-3 (Paris)&lt;/b&gt;&lt;/font&gt;" style="points=[[0,0],[0.25,0],[0.5,0],[0.75,0],[1,0],[1,0.25],[1,0.5],[1,0.75],[1,1],[0.75,1],[0.5,1],[0.25,1],[0,1],[0,0.75],[0,0.5],[0,0.25]];outlineConnect=0;gradientColor=none;html=1;whiteSpace=wrap;fontSize=12;fontStyle=0;container=1;pointerEvents=0;collapsible=0;recursiveResize=0;shape=mxgraph.aws4.group;grIcon=mxgraph.aws4.group_region;strokeColor=#00A4A6;fillColor=none;verticalAlign=top;align=left;spacingLeft=30;fontColor=#147EBA;dashed=1;" vertex="1" parent="1">
          <mxGeometry x="50" y="80" width="1090" height="630" as="geometry" />
        </mxCell>
        <mxCell id="QF0fgMjlyhS2rDeq32wS-3" value="&lt;font style=&quot;font-size: 13px;&quot;&gt;&lt;b&gt;VPC 10.0.0.0/16&lt;/b&gt;&lt;/font&gt;" style="points=[[0,0],[0.25,0],[0.5,0],[0.75,0],[1,0],[1,0.25],[1,0.5],[1,0.75],[1,1],[0.75,1],[0.5,1],[0.25,1],[0,1],[0,0.75],[0,0.5],[0,0.25]];outlineConnect=0;gradientColor=none;html=1;whiteSpace=wrap;fontSize=12;fontStyle=0;container=1;pointerEvents=0;collapsible=0;recursiveResize=0;shape=mxgraph.aws4.group;grIcon=mxgraph.aws4.group_vpc2;strokeColor=#8C4FFF;fillColor=none;verticalAlign=top;align=left;spacingLeft=30;fontColor=#AAB7B8;dashed=0;" vertex="1" parent="QF0fgMjlyhS2rDeq32wS-2">
          <mxGeometry x="30" y="40" width="1040" height="570" as="geometry" />
        </mxCell>
        <mxCell id="QF0fgMjlyhS2rDeq32wS-10" value="&lt;b&gt;Public subnet 10.0.0.1/24&lt;/b&gt;" style="points=[[0,0],[0.25,0],[0.5,0],[0.75,0],[1,0],[1,0.25],[1,0.5],[1,0.75],[1,1],[0.75,1],[0.5,1],[0.25,1],[0,1],[0,0.75],[0,0.5],[0,0.25]];outlineConnect=0;gradientColor=none;html=1;whiteSpace=wrap;fontSize=12;fontStyle=0;container=1;pointerEvents=0;collapsible=0;recursiveResize=0;shape=mxgraph.aws4.group;grIcon=mxgraph.aws4.group_security_group;grStroke=0;strokeColor=#7AA116;fillColor=#F2F6E8;verticalAlign=top;align=left;spacingLeft=30;fontColor=#248814;dashed=0;" vertex="1" parent="QF0fgMjlyhS2rDeq32wS-3">
          <mxGeometry x="100" y="70" width="250" height="130" as="geometry" />
        </mxCell>
        <mxCell id="QF0fgMjlyhS2rDeq32wS-40" value="&lt;b&gt;&lt;span style=&quot;color: rgb(153, 51, 255);&quot;&gt;Nat Gateway&lt;/span&gt;&lt;/b&gt;" style="sketch=0;outlineConnect=0;fontColor=#232F3E;gradientColor=none;fillColor=#8C4FFF;strokeColor=none;dashed=0;verticalLabelPosition=bottom;verticalAlign=top;align=center;html=1;fontSize=12;fontStyle=0;aspect=fixed;pointerEvents=1;shape=mxgraph.aws4.nat_gateway;" vertex="1" parent="QF0fgMjlyhS2rDeq32wS-10">
          <mxGeometry x="100" y="40" width="50" height="50" as="geometry" />
        </mxCell>
        <mxCell id="QF0fgMjlyhS2rDeq32wS-13" value="&lt;b&gt;Public subnet 10.0.0.2/24&lt;/b&gt;" style="points=[[0,0],[0.25,0],[0.5,0],[0.75,0],[1,0],[1,0.25],[1,0.5],[1,0.75],[1,1],[0.75,1],[0.5,1],[0.25,1],[0,1],[0,0.75],[0,0.5],[0,0.25]];outlineConnect=0;gradientColor=none;html=1;whiteSpace=wrap;fontSize=12;fontStyle=0;container=1;pointerEvents=0;collapsible=0;recursiveResize=0;shape=mxgraph.aws4.group;grIcon=mxgraph.aws4.group_security_group;grStroke=0;strokeColor=#7AA116;fillColor=#F2F6E8;verticalAlign=top;align=left;spacingLeft=30;fontColor=#248814;dashed=0;" vertex="1" parent="QF0fgMjlyhS2rDeq32wS-3">
          <mxGeometry x="100" y="370" width="250" height="130" as="geometry" />
        </mxCell>
        <mxCell id="QF0fgMjlyhS2rDeq32wS-26" value="&lt;b&gt;&lt;span style=&quot;color: rgb(153, 51, 255);&quot;&gt;Nat Gateway&lt;/span&gt;&lt;/b&gt;" style="sketch=0;outlineConnect=0;fontColor=#232F3E;gradientColor=none;fillColor=#8C4FFF;strokeColor=none;dashed=0;verticalLabelPosition=bottom;verticalAlign=top;align=center;html=1;fontSize=12;fontStyle=0;aspect=fixed;pointerEvents=1;shape=mxgraph.aws4.nat_gateway;" vertex="1" parent="QF0fgMjlyhS2rDeq32wS-13">
          <mxGeometry x="100" y="40" width="50" height="50" as="geometry" />
        </mxCell>
        <mxCell id="QF0fgMjlyhS2rDeq32wS-16" value="&lt;b&gt;Private subnet 10.0.0.3/24&lt;/b&gt;" style="points=[[0,0],[0.25,0],[0.5,0],[0.75,0],[1,0],[1,0.25],[1,0.5],[1,0.75],[1,1],[0.75,1],[0.5,1],[0.25,1],[0,1],[0,0.75],[0,0.5],[0,0.25]];outlineConnect=0;gradientColor=none;html=1;whiteSpace=wrap;fontSize=12;fontStyle=0;container=1;pointerEvents=0;collapsible=0;recursiveResize=0;shape=mxgraph.aws4.group;grIcon=mxgraph.aws4.group_security_group;grStroke=0;strokeColor=#00A4A6;fillColor=#E6F6F7;verticalAlign=top;align=left;spacingLeft=30;fontColor=#147EBA;dashed=0;" vertex="1" parent="QF0fgMjlyhS2rDeq32wS-3">
          <mxGeometry x="670" y="70" width="250" height="130" as="geometry" />
        </mxCell>
        <mxCell id="QF0fgMjlyhS2rDeq32wS-24" value="&lt;b&gt;Private subnet 10.0.0.4/24&lt;/b&gt;" style="points=[[0,0],[0.25,0],[0.5,0],[0.75,0],[1,0],[1,0.25],[1,0.5],[1,0.75],[1,1],[0.75,1],[0.5,1],[0.25,1],[0,1],[0,0.75],[0,0.5],[0,0.25]];outlineConnect=0;gradientColor=none;html=1;whiteSpace=wrap;fontSize=12;fontStyle=0;container=1;pointerEvents=0;collapsible=0;recursiveResize=0;shape=mxgraph.aws4.group;grIcon=mxgraph.aws4.group_security_group;grStroke=0;strokeColor=#00A4A6;fillColor=#E6F6F7;verticalAlign=top;align=left;spacingLeft=30;fontColor=#147EBA;dashed=0;" vertex="1" parent="QF0fgMjlyhS2rDeq32wS-3">
          <mxGeometry x="680" y="370" width="250" height="130" as="geometry" />
        </mxCell>
        <mxCell id="QF0fgMjlyhS2rDeq32wS-27" value="&lt;font style=&quot;font-size: 13px;&quot;&gt;&lt;b&gt;&lt;font style=&quot;color: rgb(153, 51, 255);&quot;&gt;Application Load Balancer&lt;/font&gt;&lt;/b&gt;&lt;/font&gt;" style="sketch=0;outlineConnect=0;fontColor=#232F3E;gradientColor=none;fillColor=#8C4FFF;strokeColor=none;dashed=0;verticalLabelPosition=bottom;verticalAlign=top;align=center;html=1;fontSize=12;fontStyle=0;aspect=fixed;pointerEvents=1;shape=mxgraph.aws4.application_load_balancer;" vertex="1" parent="QF0fgMjlyhS2rDeq32wS-3">
          <mxGeometry x="198" y="250" width="54" height="54" as="geometry" />
        </mxCell>
        <mxCell id="QF0fgMjlyhS2rDeq32wS-29" value="&lt;b&gt;&lt;span style=&quot;color: rgb(153, 51, 255);&quot;&gt;Internet Gateway&lt;/span&gt;&lt;/b&gt;" style="sketch=0;outlineConnect=0;fontColor=#232F3E;gradientColor=none;fillColor=#8C4FFF;strokeColor=none;dashed=0;verticalLabelPosition=bottom;verticalAlign=top;align=center;html=1;fontSize=12;fontStyle=0;aspect=fixed;pointerEvents=1;shape=mxgraph.aws4.internet_gateway;" vertex="1" parent="QF0fgMjlyhS2rDeq32wS-3">
          <mxGeometry x="-24" y="250" width="54" height="54" as="geometry" />
        </mxCell>
        <mxCell id="QF0fgMjlyhS2rDeq32wS-31" value="&lt;b&gt;&lt;span style=&quot;color: rgb(255, 128, 0);&quot;&gt;Auto Scaling Group&lt;/span&gt;&lt;/b&gt;" style="sketch=0;points=[[0,0,0],[0.25,0,0],[0.5,0,0],[0.75,0,0],[1,0,0],[0,1,0],[0.25,1,0],[0.5,1,0],[0.75,1,0],[1,1,0],[0,0.25,0],[0,0.5,0],[0,0.75,0],[1,0.25,0],[1,0.5,0],[1,0.75,0]];outlineConnect=0;fontColor=#232F3E;fillColor=#ED7100;strokeColor=#ffffff;dashed=0;verticalLabelPosition=bottom;verticalAlign=top;align=center;html=1;fontSize=12;fontStyle=0;aspect=fixed;shape=mxgraph.aws4.resourceIcon;resIcon=mxgraph.aws4.auto_scaling2;" vertex="1" parent="QF0fgMjlyhS2rDeq32wS-3">
          <mxGeometry x="767.5" y="250" width="55" height="55" as="geometry" />
        </mxCell>
        <mxCell id="UEzPUAAOIrF-is8g5C7q-78" value="&lt;b style=&quot;color: rgb(26, 51, 0);&quot;&gt;&lt;span style=&quot;color: rgb(0, 153, 0);&quot;&gt;Bucket&lt;/span&gt;&lt;/b&gt;" style="outlineConnect=0;fontColor=#232F3E;gradientColor=none;fillColor=#277116;strokeColor=none;dashed=0;verticalLabelPosition=bottom;verticalAlign=top;align=center;html=1;fontSize=12;fontStyle=0;aspect=fixed;pointerEvents=1;shape=mxgraph.aws4.bucket_with_objects;labelBackgroundColor=#ffffff;" parent="QF0fgMjlyhS2rDeq32wS-3" vertex="1">
          <mxGeometry x="940" y="251.39999999999998" width="51.54" height="53.6" as="geometry" />
        </mxCell>
        <mxCell id="QF0fgMjlyhS2rDeq32wS-35" value="" style="rounded=0;whiteSpace=wrap;html=1;fillColor=none;dashed=1;dashPattern=12 12;strokeColor=#FF8000;" vertex="1" parent="QF0fgMjlyhS2rDeq32wS-3">
          <mxGeometry x="700" y="60" width="190" height="460" as="geometry" />
        </mxCell>
        <mxCell id="QF0fgMjlyhS2rDeq32wS-39" value="" style="rounded=0;whiteSpace=wrap;html=1;fillColor=none;dashed=1;dashPattern=12 12;strokeColor=#7F00FF;movable=1;resizable=1;rotatable=1;deletable=1;editable=1;locked=0;connectable=1;" vertex="1" parent="QF0fgMjlyhS2rDeq32wS-3">
          <mxGeometry x="140" y="60" width="180" height="460" as="geometry" />
        </mxCell>
        <mxCell id="QF0fgMjlyhS2rDeq32wS-36" value="&lt;span style=&quot;color: rgb(255, 128, 0);&quot;&gt;&lt;b&gt;EC2&lt;/b&gt;&lt;/span&gt;" style="sketch=0;points=[[0,0,0],[0.25,0,0],[0.5,0,0],[0.75,0,0],[1,0,0],[0,1,0],[0.25,1,0],[0.5,1,0],[0.75,1,0],[1,1,0],[0,0.25,0],[0,0.5,0],[0,0.75,0],[1,0.25,0],[1,0.5,0],[1,0.75,0]];outlineConnect=0;fontColor=#232F3E;fillColor=#ED7100;strokeColor=#ffffff;dashed=0;verticalLabelPosition=bottom;verticalAlign=top;align=center;html=1;fontSize=12;fontStyle=0;aspect=fixed;shape=mxgraph.aws4.resourceIcon;resIcon=mxgraph.aws4.ec2;" vertex="1" parent="QF0fgMjlyhS2rDeq32wS-3">
          <mxGeometry x="764.5" y="110" width="58" height="58" as="geometry" />
        </mxCell>
        <mxCell id="QF0fgMjlyhS2rDeq32wS-38" value="&lt;span style=&quot;color: rgb(255, 128, 0);&quot;&gt;&lt;b&gt;EC2&lt;/b&gt;&lt;/span&gt;" style="sketch=0;points=[[0,0,0],[0.25,0,0],[0.5,0,0],[0.75,0,0],[1,0,0],[0,1,0],[0.25,1,0],[0.5,1,0],[0.75,1,0],[1,1,0],[0,0.25,0],[0,0.5,0],[0,0.75,0],[1,0.25,0],[1,0.5,0],[1,0.75,0]];outlineConnect=0;fontColor=#232F3E;fillColor=#ED7100;strokeColor=#ffffff;dashed=0;verticalLabelPosition=bottom;verticalAlign=top;align=center;html=1;fontSize=12;fontStyle=0;aspect=fixed;shape=mxgraph.aws4.resourceIcon;resIcon=mxgraph.aws4.ec2;" vertex="1" parent="QF0fgMjlyhS2rDeq32wS-3">
          <mxGeometry x="766" y="410" width="58" height="58" as="geometry" />
        </mxCell>
        <mxCell id="QF0fgMjlyhS2rDeq32wS-48" value="&lt;font style=&quot;font-size: 13px;&quot;&gt;&lt;b&gt;Availability zone&lt;/b&gt;&lt;/font&gt;" style="sketch=0;outlineConnect=0;gradientColor=none;html=1;whiteSpace=wrap;fontSize=12;fontStyle=0;shape=mxgraph.aws4.group;grIcon=mxgraph.aws4.group_availability_zone;strokeColor=#545B64;fillColor=none;verticalAlign=top;align=left;spacingLeft=30;fontColor=#545B64;dashed=1;" vertex="1" parent="QF0fgMjlyhS2rDeq32wS-3">
          <mxGeometry x="20" y="30" width="990" height="210" as="geometry" />
        </mxCell>
        <mxCell id="QF0fgMjlyhS2rDeq32wS-49" value="&lt;font style=&quot;font-size: 13px;&quot;&gt;&lt;b&gt;Availability zone&lt;/b&gt;&lt;/font&gt;" style="sketch=0;outlineConnect=0;gradientColor=none;html=1;whiteSpace=wrap;fontSize=12;fontStyle=0;shape=mxgraph.aws4.group;grIcon=mxgraph.aws4.group_availability_zone;strokeColor=#545B64;fillColor=none;verticalAlign=top;align=left;spacingLeft=30;fontColor=#545B64;dashed=1;" vertex="1" parent="QF0fgMjlyhS2rDeq32wS-3">
          <mxGeometry x="20" y="334" width="990" height="210" as="geometry" />
        </mxCell>
      </root>
    </mxGraphModel>
  </diagram>
</mxfile>
